HIERARCHY
ROOT	RokokoGuy_Hips
{
	OFFSET	0.000	0.000	0.000
	CHANNELS	6	Xposition	Yposition	Zposition	Yrotation	Xrotation	Zrotation
	JOINT	RokokoGuy_LeftUpLeg
	{
		OFFSET	9.077	-0.000	0.019
		CHANNELS	3	Yrotation	Xrotation	Zrotation
		JOINT	RokokoGuy_LeftLeg
		{
			OFFSET	-0.000	-45.393	-0.000
			CHANNELS	3	Yrotation	Xrotation	Zrotation
			JOINT	RokokoGuy_LeftFoot
			{
				OFFSET	0.000	-42.407	-0.000
				CHANNELS	3	Yrotation	Xrotation	Zrotation
				JOINT	RokokoGuy_LeftToe
				{
					OFFSET	-0.000	-14.938	9.105
					CHANNELS	3	Yrotation	Xrotation	Zrotation
					End Site
					{
						OFFSET	0.000	-7.314	0.000
					}
				}
			}
		}
	}
	JOINT	RokokoGuy_RightUpLeg
	{
		OFFSET	-9.077	-0.000	0.019
		CHANNELS	3	Yrotation	Xrotation	Zrotation
		JOINT	RokokoGuy_RightLeg
		{
			OFFSET	0.000	-45.393	0.000
			CHANNELS	3	Yrotation	Xrotation	Zrotation
			JOINT	RokokoGuy_RightFoot
			{
				OFFSET	-0.000	-42.407	0.000
				CHANNELS	3	Yrotation	Xrotation	Zrotation
				JOINT	RokokoGuy_RightToe
				{
					OFFSET	-0.000	-14.938	9.105
					CHANNELS	3	Yrotation	Xrotation	Zrotation
					End Site
					{
						OFFSET	0.000	-7.314	0.000
					}
				}
			}
		}
	}
	JOINT	RokokoGuy_Spine
	{
		OFFSET	-0.000	9.333	0.000
		CHANNELS	3	Yrotation	Xrotation	Zrotation
		JOINT	RokokoGuy_Spine2
		{
			OFFSET	0.000	-26.413	-0.000
			CHANNELS	3	Yrotation	Xrotation	Zrotation
			JOINT	RokokoGuy_LeftShoulder
			{
				OFFSET	-3.399	-25.254	0.020
				CHANNELS	3	Yrotation	Xrotation	Zrotation
				JOINT	RokokoGuy_LeftArm
				{
					OFFSET	0.000	-16.612	0.000
					CHANNELS	3	Yrotation	Xrotation	Zrotation
					JOINT	RokokoGuy_LeftForeArm
					{
						OFFSET	-0.000	-29.481	-0.000
						CHANNELS	3	Yrotation	Xrotation	Zrotation
						JOINT	RokokoGuy_LeftHand
						{
							OFFSET	-0.000	-26.541	-0.000
							CHANNELS	3	Yrotation	Xrotation	Zrotation
							End Site
							{
								OFFSET	-0.000	-19.378	0.000
							}
							JOINT	RokokoGuy_LeftIndex01
							{
								OFFSET	3.086	-8.947	0.000
								CHANNELS	3	Yrotation	Xrotation	Zrotation
								JOINT	RokokoGuy_LeftIndex02
								{
									OFFSET	-0.000	-4.214	0.000
									CHANNELS	3	Yrotation	Xrotation	Zrotation
									JOINT	RokokoGuy_LeftIndex03
									{
										OFFSET	0.000	-2.706	0.000
										CHANNELS	3	Yrotation	Xrotation	Zrotation
										End Site
										{
											OFFSET	0.000	-2.209	0.000
										}
									}
								}
							}
							JOINT	RokokoGuy_LeftMiddle01
							{
								OFFSET	0.949	-9.603	0.000
								CHANNELS	3	Yrotation	Xrotation	Zrotation
								JOINT	RokokoGuy_LeftMiddle02
								{
									OFFSET	-0.000	-4.348	0.000
									CHANNELS	3	Yrotation	Xrotation	Zrotation
									JOINT	RokokoGuy_LeftMiddle03
									{
										OFFSET	0.000	-2.809	0.000
										CHANNELS	3	Yrotation	Xrotation	Zrotation
										End Site
										{
											OFFSET	0.000	-2.725	0.000
										}
									}
								}
							}
							JOINT	RokokoGuy_LeftPinky01
							{
								OFFSET	-2.814	-8.621	0.000
								CHANNELS	3	Yrotation	Xrotation	Zrotation
								JOINT	RokokoGuy_LeftPinky02
								{
									OFFSET	-0.000	-3.081	0.000
									CHANNELS	3	Yrotation	Xrotation	Zrotation
									JOINT	RokokoGuy_LeftPinky03
									{
										OFFSET	0.000	-1.853	0.000
										CHANNELS	3	Yrotation	Xrotation	Zrotation
										End Site
										{
											OFFSET	0.000	-2.129	0.000
										}
									}
								}
							}
							JOINT	RokokoGuy_LeftRing01
							{
								OFFSET	-0.976	-9.441	0.000
								CHANNELS	3	Yrotation	Xrotation	Zrotation
								JOINT	RokokoGuy_LeftRing02
								{
									OFFSET	-0.000	-3.760	0.000
									CHANNELS	3	Yrotation	Xrotation	Zrotation
									JOINT	RokokoGuy_LeftRing03
									{
										OFFSET	0.000	-2.556	0.000
										CHANNELS	3	Yrotation	Xrotation	Zrotation
										End Site
										{
											OFFSET	0.000	-2.551	0.000
										}
									}
								}
							}
							JOINT	RokokoGuy_LeftThumb01
							{
								OFFSET	2.311	-2.752	2.326
								CHANNELS	3	Yrotation	Xrotation	Zrotation
								JOINT	RokokoGuy_LeftThumb02
								{
									OFFSET	0.000	-4.214	-0.000
									CHANNELS	3	Yrotation	Xrotation	Zrotation
									JOINT	RokokoGuy_LeftThumb03
									{
										OFFSET	0.000	-2.706	0.000
										CHANNELS	3	Yrotation	Xrotation	Zrotation
										End Site
										{
											OFFSET	0.000	-2.913	-0.000
										}
									}
								}
							}
						}
					}
				}
			}
			JOINT	RokokoGuy_Neck
			{
				OFFSET	-0.000	-25.254	0.014
				CHANNELS	3	Yrotation	Xrotation	Zrotation
				JOINT	RokokoGuy_Head
				{
					OFFSET	-0.000	-9.300	0.006
					CHANNELS	3	Yrotation	Xrotation	Zrotation
					End Site
					{
						OFFSET	-0.000	-21.700	-0.001
					}
				}
			}
			JOINT	RokokoGuy_RightShoulder
			{
				OFFSET	3.399	-25.254	0.020
				CHANNELS	3	Yrotation	Xrotation	Zrotation
				JOINT	RokokoGuy_RightArm
				{
					OFFSET	-0.000	-16.548	-1.448
					CHANNELS	3	Yrotation	Xrotation	Zrotation
					JOINT	RokokoGuy_RightForeArm
					{
						OFFSET	0.000	-29.481	0.000
						CHANNELS	3	Yrotation	Xrotation	Zrotation
						JOINT	RokokoGuy_RightHand
						{
							OFFSET	-0.000	-26.541	-0.000
							CHANNELS	3	Yrotation	Xrotation	Zrotation
							End Site
							{
								OFFSET	-0.000	-19.378	0.000
							}
							JOINT	RokokoGuy_RightIndex005
							{
								OFFSET	-3.086	-8.947	0.000
								CHANNELS	3	Yrotation	Xrotation	Zrotation
								JOINT	RokokoGuy_RightIndex006
								{
									OFFSET	-0.000	-4.214	0.000
									CHANNELS	3	Yrotation	Xrotation	Zrotation
									JOINT	RokokoGuy_RightIndex007
									{
										OFFSET	0.000	-2.706	0.000
										CHANNELS	3	Yrotation	Xrotation	Zrotation
										End Site
										{
											OFFSET	0.000	-2.209	0.000
										}
									}
								}
							}
							JOINT	RokokoGuy_RightMiddle004
							{
								OFFSET	-0.949	-9.603	0.000
								CHANNELS	3	Yrotation	Xrotation	Zrotation
								JOINT	RokokoGuy_RightMiddle005
								{
									OFFSET	-0.000	-4.348	0.000
									CHANNELS	3	Yrotation	Xrotation	Zrotation
									JOINT	RokokoGuy_RightMiddle006
									{
										OFFSET	0.000	-2.809	0.000
										CHANNELS	3	Yrotation	Xrotation	Zrotation
										End Site
										{
											OFFSET	0.000	-2.725	0.000
										}
									}
								}
							}
							JOINT	RokokoGuy_RightPinky004
							{
								OFFSET	2.814	-8.621	0.000
								CHANNELS	3	Yrotation	Xrotation	Zrotation
								JOINT	RokokoGuy_RightPinky005
								{
									OFFSET	-0.000	-3.081	0.000
									CHANNELS	3	Yrotation	Xrotation	Zrotation
									JOINT	RokokoGuy_RightPinky006
									{
										OFFSET	0.000	-1.853	0.000
										CHANNELS	3	Yrotation	Xrotation	Zrotation
										End Site
										{
											OFFSET	0.000	-2.129	0.000
										}
									}
								}
							}
							JOINT	RokokoGuy_RightRing004
							{
								OFFSET	0.976	-9.442	0.000
								CHANNELS	3	Yrotation	Xrotation	Zrotation
								JOINT	RokokoGuy_RightRing005
								{
									OFFSET	-0.000	-3.760	0.000
									CHANNELS	3	Yrotation	Xrotation	Zrotation
									JOINT	RokokoGuy_RightRing006
									{
										OFFSET	0.000	-2.556	0.000
										CHANNELS	3	Yrotation	Xrotation	Zrotation
										End Site
										{
											OFFSET	0.000	-2.551	0.000
										}
									}
								}
							}
							JOINT	RokokoGuy_RightThumb004
							{
								OFFSET	-2.311	-2.752	2.326
								CHANNELS	3	Yrotation	Xrotation	Zrotation
								JOINT	RokokoGuy_RightThumb005
								{
									OFFSET	0.000	-4.214	0.000
									CHANNELS	3	Yrotation	Xrotation	Zrotation
									JOINT	RokokoGuy_RightThumb006
									{
										OFFSET	0.000	-2.706	0.000
										CHANNELS	3	Yrotation	Xrotation	Zrotation
										End Site
										{
											OFFSET	-0.000	-2.913	0.000
										}
									}
								}
							}
						}
					}
				}
			}
		}
	}
}
MOTION
Frames:	4
Frame Time:	0.033
-0.000	96.800	-0.019	0.000	-0.000	0.000	270.000	0.000	0.000	0.000	-0.000	-0.000	270.000	90.000	0.000	0.000	0.000	0.000	90.000	-0.000	0.000	0.000	-0.000	0.000	90.000	90.000	0.000	0.000	0.000	0.000	-0.000	-0.000	180.000	0.000	-0.000	0.000	355.000	0.000	270.000	270.000	-0.000	5.000	0.000	0.000	0.000	0.000	0.000	0.000	-0.000	0.000	-0.000	-0.000	-0.000	-0.000	-0.000	-0.000	-0.000	-0.000	0.000	-0.000	-0.000	-0.000	-0.000	-0.000	-0.000	-0.000	-0.000	0.000	-0.000	-0.000	-0.000	-0.000	-0.000	-0.000	-0.000	-0.000	0.000	-0.000	-0.000	-0.000	-0.000	-0.000	-0.000	-0.000	314.950	14.813	35.071	0.000	0.000	-0.000	0.000	0.000	-0.000	-0.000	-0.000	0.000	-0.000	0.000	-0.000	-0.000	0.000	90.000	90.000	0.000	-0.000	0.000	0.000	-0.000	0.000	0.000	-0.000	0.000	0.000	0.000	0.000	-0.000	-0.000	0.000	-0.000	-0.000	0.000	0.000	0.000	0.000	-0.000	-0.000	0.000	-0.000	-0.000	0.000	0.000	0.000	0.000	-0.000	-0.000	0.000	-0.000	-0.000	0.000	0.000	0.000	0.000	-0.000	-0.000	0.000	-0.000	-0.000	45.050	14.813	324.929	0.000	-0.000	-0.000	0.000	-0.000	-0.000	
0.040	96.841	0.855	4.538	0.378	359.965	271.128	359.939	359.737	0.338	0.001	0.312	156.870	89.787	247.466	-0.000	-0.000	-0.000	91.913	359.799	0.407	358.685	0.188	359.384	90.509	89.972	0.000	-0.000	-0.000	-0.000	0.480	359.870	180.047	359.520	0.130	0.047	355.355	359.446	270.392	179.139	275.423	91.419	359.740	359.796	0.222	359.762	0.210	359.924	-0.000	0.000	-0.000	-0.000	-0.000	-0.000	-0.000	-0.000	-0.000	-0.000	0.000	-0.000	-0.000	-0.000	-0.000	-0.000	-0.000	-0.000	-0.000	0.000	-0.000	-0.000	-0.000	-0.000	-0.000	-0.000	-0.000	-0.000	0.000	-0.000	-0.000	-0.000	-0.000	-0.000	-0.000	-0.000	314.950	14.813	35.071	0.000	0.000	-0.000	0.000	0.000	-0.000	359.938	359.785	0.128	359.938	359.785	0.128	0.627	0.033	90.038	164.343	270.423	285.505	0.821	0.078	0.137	358.721	359.765	359.853	0.000	0.000	0.000	0.000	-0.000	-0.000	0.000	-0.000	-0.000	0.000	0.000	0.000	0.000	-0.000	-0.000	0.000	-0.000	-0.000	0.000	0.000	0.000	0.000	-0.000	-0.000	0.000	-0.000	-0.000	0.000	0.000	0.000	0.000	-0.000	-0.000	0.000	-0.000	-0.000	45.050	14.813	324.929	0.000	-0.000	-0.000	0.000	-0.000	-0.000	
0.029	96.839	0.798	4.536	0.378	359.970	271.141	359.930	359.728	0.330	0.007	0.325	156.781	89.791	247.380	-0.000	-0.000	-0.000	91.901	359.800	0.402	358.689	0.195	359.385	90.512	89.972	0.000	-0.000	-0.000	-0.000	0.480	359.865	180.047	359.520	0.135	0.047	355.353	359.435	270.395	179.117	275.403	91.446	359.725	359.790	0.228	359.790	0.209	359.915	-0.000	0.000	-0.000	-0.000	-0.000	-0.000	-0.000	-0.000	-0.000	-0.000	0.000	-0.000	-0.000	-0.000	-0.000	-0.000	-0.000	-0.000	-0.000	0.000	-0.000	-0.000	-0.000	-0.000	-0.000	-0.000	-0.000	-0.000	0.000	-0.000	-0.000	-0.000	-0.000	-0.000	-0.000	-0.000	314.950	14.813	35.071	0.000	0.000	-0.000	0.000	0.000	-0.000	359.936	359.780	0.128	359.936	359.780	0.128	0.602	0.021	90.030	163.908	270.416	285.926	0.831	0.085	0.142	358.701	359.762	359.850	0.000	0.000	0.000	0.000	-0.000	-0.000	0.000	-0.000	-0.000	0.000	0.000	0.000	0.000	-0.000	-0.000	0.000	-0.000	-0.000	0.000	0.000	0.000	0.000	-0.000	-0.000	0.000	-0.000	-0.000	0.000	0.000	0.000	0.000	-0.000	-0.000	0.000	-0.000	-0.000	45.050	14.813	324.929	0.000	-0.000	-0.000	0.000	-0.000	-0.000	
0.027	96.842	0.792	4.562	0.377	359.968	271.126	359.919	359.717	0.307	0.005	0.341	161.985	89.777	252.552	-0.000	-0.000	-0.000	91.828	359.787	0.389	358.763	0.213	359.397	90.436	89.960	0.000	-0.000	-0.000	-0.000	0.452	359.850	180.064	359.548	0.150	0.064	355.268	359.403	270.392	178.971	275.415	91.624	359.723	359.779	0.220	359.932	0.220	359.863	-0.000	0.000	-0.000	-0.000	-0.000	-0.000	-0.000	-0.000	-0.000	-0.000	0.000	-0.000	-0.000	-0.000	-0.000	-0.000	-0.000	-0.000	-0.000	0.000	-0.000	-0.000	-0.000	-0.000	-0.000	-0.000	-0.000	-0.000	0.000	-0.000	-0.000	-0.000	-0.000	-0.000	-0.000	-0.000	314.950	14.813	35.071	0.000	0.000	-0.000	0.000	0.000	-0.000	359.934	359.762	0.112	359.934	359.763	0.111	0.474	359.985	89.974	164.704	270.439	285.107	0.786	0.080	0.116	358.681	359.757	359.853	0.000	0.000	0.000	0.000	-0.000	-0.000	0.000	-0.000	-0.000	0.000	0.000	0.000	0.000	-0.000	-0.000	0.000	-0.000	-0.000	0.000	0.000	0.000	0.000	-0.000	-0.000	0.000	-0.000	-0.000	0.000	0.000	0.000	0.000	-0.000	-0.000	0.000	-0.000	-0.000	45.050	14.813	324.929	0.000	-0.000	-0.000	0.000	-0.000	-0.000	
